# xmcd
#
# Track frame offsets: 
#        182
#        17037
#        35705
#        57920
#        74842
#        87437
#        101780
#        115640
#        127052
#        145965
#
# Disc length: 2183 seconds
#
# Revision: 3
# Processed by: cddbd v1.5.1PL2 Copyright (c) Steve Scherf et al.
# Submitted via: ExactAudioCopy v0.95b4
#
DISCID=9708850a
DTITLE=Vince Gill - I Still Believe In You
DYEAR=1992
DGENRE=Country
TTITLE0=Don't Let Our Love Start Slippin' Away
TTITLE1=No Future In The Past
TTITLE2=Nothing Like A Woman
TTITLE3=Tryin' To Get Over You
TTITLE4=Say Hello
TTITLE5=One More Last Chance
TTITLE6=Under These Conditions
TTITLE7=Pretty Words
TTITLE8=Love Never Broke Anyone's Heart
TTITLE9=I Still Believe In You
EXTD=
EXTT0=
EXTT1=
EXTT2=
EXTT3=
EXTT4=
EXTT5=
EXTT6=
EXTT7=
EXTT8=
EXTT9=
PLAYORDER=
